<?xml version="1.0" encoding="utf-8"?>
<!-- Generator: Adobe Illustrator 24.1.1, SVG Export Plug-In . SVG Version: 6.00 Build 0)  -->
<svg version="1.1" id="Flat" xmlns="http://www.w3.org/2000/svg" xmlns:xlink="http://www.w3.org/1999/xlink" x="0px" y="0px"
	 viewBox="0 0 427 427" style="enable-background:new 0 0 427 427;" xml:space="preserve">
<style type="text/css">
	.st0{fill:#8690FA;}
	.st1{fill:#5153FF;}
</style>
<path class="st0" d="M203.3,395.1c-98.5,0-178.4-79.8-178.4-178.3c0-47.3,18.8-92.7,52.2-126.1C140.5,27.3,241,20.8,312,75.4
	c30.5,23.5,52.6,56.3,63.1,93.4c2.8,9.8-2.9,20-12.7,22.8c-9.8,2.8-20-2.9-22.8-12.7c0-0.1,0-0.1-0.1-0.2c-8.3-29.4-25.8-55.4-50-74
	c-24.7-19.1-55-29.4-86.2-29.3c-78,0-141.5,63.5-141.5,141.5s63.5,141.5,141.5,141.5c31.2,0.1,61.6-10.2,86.2-29.3
	c24.2-18.7,41.7-44.6,50-74c2.7-9.8,12.8-15.6,22.7-12.9c9.8,2.7,15.6,12.8,12.9,22.7c0,0.1,0,0.1-0.1,0.2
	c-10.5,37.1-32.6,69.8-63.1,93.4C280.9,382.3,242.6,395.3,203.3,395.1L203.3,395.1z"/>
<path class="st1" d="M375.5,210.6c-1.8,0-3.5-0.3-5.2-0.8l-104.5-30.8c-9.8-2.8-15.5-13-12.7-22.8c2.8-9.8,13-15.5,22.8-12.7
	c0.1,0,0.2,0.1,0.3,0.1l82.2,24.2l4.9-87.5c0.5-10.2,9.1-18,19.3-17.6c10.2,0.5,18,9.1,17.6,19.3c0,0.1,0,0.2,0,0.3l-6.2,110.7
	C393.3,203,385.3,210.6,375.5,210.6L375.5,210.6z"/>
</svg>
